# Check Staff - Roblox UGC
# 1 unit = 1 stud, +Y up, front faces -Z
mtllib check_staff.mtl
o CheckStaff
v 0.00000 0.00000 0.00000
v 0.04500 0.00000 0.00000
v 0.04157 0.00000 0.01722
v 0.03182 0.00000 0.03182
v 0.01722 0.00000 0.04157
v 0.00000 0.00000 0.04500
v -0.01722 0.00000 0.04157
v -0.03182 0.00000 0.03182
v -0.04157 0.00000 0.01722
v -0.04500 0.00000 0.00000
v -0.04157 0.00000 -0.01722
v -0.03182 0.00000 -0.03182
v -0.01722 0.00000 -0.04157
v -0.00000 0.00000 -0.04500
v 0.01722 0.00000 -0.04157
v 0.03182 0.00000 -0.03182
v 0.04157 0.00000 -0.01722
v 0.06467 0.03500 0.02679
v 0.07000 0.03500 0.00000
v 0.04950 0.03500 0.04950
v 0.02679 0.03500 0.06467
v 0.00000 0.03500 0.07000
v -0.02679 0.03500 0.06467
v -0.04950 0.03500 0.04950
v -0.06467 0.03500 0.02679
v -0.07000 0.03500 0.00000
v -0.06467 0.03500 -0.02679
v -0.04950 0.03500 -0.04950
v -0.02679 0.03500 -0.06467
v -0.00000 0.03500 -0.07000
v 0.02679 0.03500 -0.06467
v 0.04950 0.03500 -0.04950
v 0.06467 0.03500 -0.02679
v 0.06929 0.10000 0.02870
v 0.07500 0.10000 0.00000
v 0.05303 0.10000 0.05303
v 0.02870 0.10000 0.06929
v 0.00000 0.10000 0.07500
v -0.02870 0.10000 0.06929
v -0.05303 0.10000 0.05303
v -0.06929 0.10000 0.02870
v -0.07500 0.10000 0.00000
v -0.06929 0.10000 -0.02870
v -0.05303 0.10000 -0.05303
v -0.02870 0.10000 -0.06929
v -0.00000 0.10000 -0.07500
v 0.02870 0.10000 -0.06929
v 0.05303 0.10000 -0.05303
v 0.06929 0.10000 -0.02870
v 0.05543 0.13000 0.02296
v 0.06000 0.13000 0.00000
v 0.04243 0.13000 0.04243
v 0.02296 0.13000 0.05543
v 0.00000 0.13000 0.06000
v -0.02296 0.13000 0.05543
v -0.04243 0.13000 0.04243
v -0.05543 0.13000 0.02296
v -0.06000 0.13000 0.00000
v -0.05543 0.13000 -0.02296
v -0.04243 0.13000 -0.04243
v -0.02296 0.13000 -0.05543
v -0.00000 0.13000 -0.06000
v 0.02296 0.13000 -0.05543
v 0.04243 0.13000 -0.04243
v 0.05543 0.13000 -0.02296
v 0.05081 2.62000 0.02105
v 0.05500 2.62000 0.00000
v 0.03889 2.62000 0.03889
v 0.02105 2.62000 0.05081
v 0.00000 2.62000 0.05500
v -0.02105 2.62000 0.05081
v -0.03889 2.62000 0.03889
v -0.05081 2.62000 0.02105
v -0.05500 2.62000 0.00000
v -0.05081 2.62000 -0.02105
v -0.03889 2.62000 -0.03889
v -0.02105 2.62000 -0.05081
v -0.00000 2.62000 -0.05500
v 0.02105 2.62000 -0.05081
v 0.03889 2.62000 -0.03889
v 0.05081 2.62000 -0.02105
v 0.06929 2.64000 0.02870
v 0.07500 2.64000 0.00000
v 0.05303 2.64000 0.05303
v 0.02870 2.64000 0.06929
v 0.00000 2.64000 0.07500
v -0.02870 2.64000 0.06929
v -0.05303 2.64000 0.05303
v -0.06929 2.64000 0.02870
v -0.07500 2.64000 0.00000
v -0.06929 2.64000 -0.02870
v -0.05303 2.64000 -0.05303
v -0.02870 2.64000 -0.06929
v -0.00000 2.64000 -0.07500
v 0.02870 2.64000 -0.06929
v 0.05303 2.64000 -0.05303
v 0.06929 2.64000 -0.02870
v 0.06929 2.70000 0.02870
v 0.07500 2.70000 0.00000
v 0.05303 2.70000 0.05303
v 0.02870 2.70000 0.06929
v 0.00000 2.70000 0.07500
v -0.02870 2.70000 0.06929
v -0.05303 2.70000 0.05303
v -0.06929 2.70000 0.02870
v -0.07500 2.70000 0.00000
v -0.06929 2.70000 -0.02870
v -0.05303 2.70000 -0.05303
v -0.02870 2.70000 -0.06929
v -0.00000 2.70000 -0.07500
v 0.02870 2.70000 -0.06929
v 0.05303 2.70000 -0.05303
v 0.06929 2.70000 -0.02870
v 0.05543 2.72000 0.02296
v 0.06000 2.72000 0.00000
v 0.04243 2.72000 0.04243
v 0.02296 2.72000 0.05543
v 0.00000 2.72000 0.06000
v -0.02296 2.72000 0.05543
v -0.04243 2.72000 0.04243
v -0.05543 2.72000 0.02296
v -0.06000 2.72000 0.00000
v -0.05543 2.72000 -0.02296
v -0.04243 2.72000 -0.04243
v -0.02296 2.72000 -0.05543
v -0.00000 2.72000 -0.06000
v 0.02296 2.72000 -0.05543
v 0.04243 2.72000 -0.04243
v 0.05543 2.72000 -0.02296
v 0.05543 2.75000 0.02296
v 0.06000 2.75000 0.00000
v 0.04243 2.75000 0.04243
v 0.02296 2.75000 0.05543
v 0.00000 2.75000 0.06000
v -0.02296 2.75000 0.05543
v -0.04243 2.75000 0.04243
v -0.05543 2.75000 0.02296
v -0.06000 2.75000 0.00000
v -0.05543 2.75000 -0.02296
v -0.04243 2.75000 -0.04243
v -0.02296 2.75000 -0.05543
v -0.00000 2.75000 -0.06000
v 0.02296 2.75000 -0.05543
v 0.04243 2.75000 -0.04243
v 0.05543 2.75000 -0.02296
v 0.09701 2.84000 0.04018
v 0.10500 2.84000 0.00000
v 0.07425 2.84000 0.07425
v 0.04018 2.84000 0.09701
v 0.00000 2.84000 0.10500
v -0.04018 2.84000 0.09701
v -0.07425 2.84000 0.07425
v -0.09701 2.84000 0.04018
v -0.10500 2.84000 0.00000
v -0.09701 2.84000 -0.04018
v -0.07425 2.84000 -0.07425
v -0.04018 2.84000 -0.09701
v -0.00000 2.84000 -0.10500
v 0.04018 2.84000 -0.09701
v 0.07425 2.84000 -0.07425
v 0.09701 2.84000 -0.04018
v 0.09701 2.87000 0.04018
v 0.10500 2.87000 0.00000
v 0.07425 2.87000 0.07425
v 0.04018 2.87000 0.09701
v 0.00000 2.87000 0.10500
v -0.04018 2.87000 0.09701
v -0.07425 2.87000 0.07425
v -0.09701 2.87000 0.04018
v -0.10500 2.87000 0.00000
v -0.09701 2.87000 -0.04018
v -0.07425 2.87000 -0.07425
v -0.04018 2.87000 -0.09701
v -0.00000 2.87000 -0.10500
v 0.04018 2.87000 -0.09701
v 0.07425 2.87000 -0.07425
v 0.09701 2.87000 -0.04018
v 0.00000 2.87000 0.00000
v 0.00712 2.85772 -0.06500
v -0.00512 2.85825 -0.06500
v -0.08140 2.96948 -0.06500
v -0.19109 3.11771 -0.06500
v -0.30676 3.26141 -0.06500
v -0.55517 3.53410 -0.06500
v -0.66741 3.64311 -0.06500
v -0.62609 3.68742 -0.06500
v -0.42819 3.40028 -0.06500
v -0.50435 3.58207 -0.06500
v -0.36745 3.45345 -0.06500
v -0.23561 3.31902 -0.06500
v -0.10908 3.17900 -0.06500
v -0.00739 3.05679 -0.06500
v 0.08227 3.17156 -0.06500
v 0.20241 3.10768 -0.06500
v 0.00712 2.85772 0.06500
v -0.08140 2.96948 0.06500
v -0.00512 2.85825 0.06500
v -0.19109 3.11771 0.06500
v -0.30676 3.26141 0.06500
v -0.55517 3.53410 0.06500
v -0.62609 3.68742 0.06500
v -0.66741 3.64311 0.06500
v -0.42819 3.40028 0.06500
v -0.50435 3.58207 0.06500
v -0.36745 3.45345 0.06500
v -0.23561 3.31902 0.06500
v -0.10908 3.17900 0.06500
v -0.00739 3.05679 0.06500
v 0.08227 3.17156 0.06500
v 0.20241 3.10768 0.06500
v -0.02031 2.83089 -0.03700
v -0.10420 2.95322 0.03700
v -0.10420 2.95322 -0.03700
v -0.02031 2.83089 0.03700
v -0.21325 3.10060 0.03700
v -0.21325 3.10060 -0.03700
v -0.32821 3.24341 0.03700
v -0.32821 3.24341 -0.03700
v -0.44889 3.38142 0.03700
v -0.44889 3.38142 -0.03700
v -0.57509 3.51441 0.03700
v -0.57509 3.51441 -0.03700
v -0.70660 3.64215 0.03700
v -0.70660 3.64215 -0.03700
v -0.62817 3.72625 0.03700
v -0.62817 3.72625 -0.03700
v -0.48560 3.60287 0.03700
v -0.48560 3.60287 -0.03700
v -0.34786 3.47346 0.03700
v -0.34786 3.47346 -0.03700
v -0.21522 3.33822 0.03700
v -0.21522 3.33822 -0.03700
v -0.08792 3.19735 0.03700
v -0.08792 3.19735 -0.03700
v -0.00808 3.10139 0.03700
v -0.00808 3.10139 -0.03700
v 0.07467 3.20731 0.03700
v 0.07467 3.20731 -0.03700
v 0.24502 3.11674 0.03700
v 0.24502 3.11674 -0.03700
v 0.02031 2.82911 0.03700
v 0.02031 2.82911 -0.03700
vt 0.52344 0.02344
vt 0.55176 0.02344
vt 0.58008 0.02344
vt 0.60840 0.02344
vt 0.63672 0.02344
vt 0.66504 0.02344
vt 0.69336 0.02344
vt 0.72168 0.02344
vt 0.75000 0.02344
vt 0.77832 0.02344
vt 0.80664 0.02344
vt 0.83496 0.02344
vt 0.86328 0.02344
vt 0.89160 0.02344
vt 0.91992 0.02344
vt 0.94824 0.02344
vt 0.97656 0.02344
vt 0.55176 0.14543
vt 0.52344 0.14543
vt 0.58008 0.14543
vt 0.60840 0.14543
vt 0.63672 0.14543
vt 0.66504 0.14543
vt 0.69336 0.14543
vt 0.72168 0.14543
vt 0.75000 0.14543
vt 0.77832 0.14543
vt 0.80664 0.14543
vt 0.83496 0.14543
vt 0.86328 0.14543
vt 0.89160 0.14543
vt 0.91992 0.14543
vt 0.94824 0.14543
vt 0.97656 0.14543
vt 0.55176 0.37200
vt 0.52344 0.37200
vt 0.58008 0.37200
vt 0.60840 0.37200
vt 0.63672 0.37200
vt 0.66504 0.37200
vt 0.69336 0.37200
vt 0.72168 0.37200
vt 0.75000 0.37200
vt 0.77832 0.37200
vt 0.80664 0.37200
vt 0.83496 0.37200
vt 0.86328 0.37200
vt 0.89160 0.37200
vt 0.91992 0.37200
vt 0.94824 0.37200
vt 0.97656 0.37200
vt 0.55176 0.47656
vt 0.52344 0.47656
vt 0.58008 0.47656
vt 0.60840 0.47656
vt 0.63672 0.47656
vt 0.66504 0.47656
vt 0.69336 0.47656
vt 0.72168 0.47656
vt 0.75000 0.47656
vt 0.77832 0.47656
vt 0.80664 0.47656
vt 0.83496 0.47656
vt 0.86328 0.47656
vt 0.89160 0.47656
vt 0.91992 0.47656
vt 0.94824 0.47656
vt 0.97656 0.47656
vt 0.02344 0.02344
vt 0.05176 0.47656
vt 0.05176 0.02344
vt 0.02344 0.47656
vt 0.08008 0.47656
vt 0.08008 0.02344
vt 0.10840 0.47656
vt 0.10840 0.02344
vt 0.13672 0.47656
vt 0.13672 0.02344
vt 0.16504 0.47656
vt 0.16504 0.02344
vt 0.19336 0.47656
vt 0.19336 0.02344
vt 0.22168 0.47656
vt 0.22168 0.02344
vt 0.25000 0.47656
vt 0.25000 0.02344
vt 0.27832 0.47656
vt 0.27832 0.02344
vt 0.30664 0.47656
vt 0.30664 0.02344
vt 0.33496 0.47656
vt 0.33496 0.02344
vt 0.36328 0.47656
vt 0.36328 0.02344
vt 0.39160 0.47656
vt 0.39160 0.02344
vt 0.41992 0.47656
vt 0.41992 0.02344
vt 0.44824 0.47656
vt 0.44824 0.02344
vt 0.47656 0.47656
vt 0.47656 0.02344
vt 0.55176 0.05969
vt 0.52344 0.05969
vt 0.58008 0.05969
vt 0.60840 0.05969
vt 0.63672 0.05969
vt 0.66504 0.05969
vt 0.69336 0.05969
vt 0.72168 0.05969
vt 0.75000 0.05969
vt 0.77832 0.05969
vt 0.80664 0.05969
vt 0.83496 0.05969
vt 0.86328 0.05969
vt 0.89160 0.05969
vt 0.91992 0.05969
vt 0.94824 0.05969
vt 0.97656 0.05969
vt 0.55176 0.16844
vt 0.52344 0.16844
vt 0.58008 0.16844
vt 0.60840 0.16844
vt 0.63672 0.16844
vt 0.66504 0.16844
vt 0.69336 0.16844
vt 0.72168 0.16844
vt 0.75000 0.16844
vt 0.77832 0.16844
vt 0.80664 0.16844
vt 0.83496 0.16844
vt 0.86328 0.16844
vt 0.89160 0.16844
vt 0.91992 0.16844
vt 0.94824 0.16844
vt 0.97656 0.16844
vt 0.55176 0.20469
vt 0.52344 0.20469
vt 0.58008 0.20469
vt 0.60840 0.20469
vt 0.63672 0.20469
vt 0.66504 0.20469
vt 0.69336 0.20469
vt 0.72168 0.20469
vt 0.75000 0.20469
vt 0.77832 0.20469
vt 0.80664 0.20469
vt 0.83496 0.20469
vt 0.86328 0.20469
vt 0.89160 0.20469
vt 0.91992 0.20469
vt 0.94824 0.20469
vt 0.97656 0.20469
vt 0.55176 0.25906
vt 0.52344 0.25906
vt 0.58008 0.25906
vt 0.60840 0.25906
vt 0.63672 0.25906
vt 0.66504 0.25906
vt 0.69336 0.25906
vt 0.72168 0.25906
vt 0.75000 0.25906
vt 0.77832 0.25906
vt 0.80664 0.25906
vt 0.83496 0.25906
vt 0.86328 0.25906
vt 0.89160 0.25906
vt 0.91992 0.25906
vt 0.94824 0.25906
vt 0.97656 0.25906
vt 0.55176 0.42219
vt 0.52344 0.42219
vt 0.58008 0.42219
vt 0.60840 0.42219
vt 0.63672 0.42219
vt 0.66504 0.42219
vt 0.69336 0.42219
vt 0.72168 0.42219
vt 0.75000 0.42219
vt 0.77832 0.42219
vt 0.80664 0.42219
vt 0.83496 0.42219
vt 0.86328 0.42219
vt 0.89160 0.42219
vt 0.91992 0.42219
vt 0.94824 0.42219
vt 0.97656 0.42219
vt 0.13672 0.53788
vt 0.14254 0.53815
vt 0.17886 0.59433
vt 0.23109 0.66920
vt 0.28617 0.74178
vt 0.40446 0.87951
vt 0.45790 0.93457
vt 0.43823 0.95695
vt 0.34399 0.81192
vt 0.38026 0.90374
vt 0.31507 0.83877
vt 0.25230 0.77088
vt 0.19205 0.70016
vt 0.14363 0.63843
vt 0.10093 0.69640
vt 0.04373 0.66414
vt 0.52344 0.52344
vt 0.54749 0.72656
vt 0.54749 0.52344
vt 0.52344 0.72656
vt 0.52344 0.77344
vt 0.54749 0.77344
vt 0.54749 0.97656
vt 0.52344 0.97656
vt 0.57722 0.72656
vt 0.57722 0.52344
vt 0.57722 0.77344
vt 0.57722 0.97656
vt 0.60694 0.72656
vt 0.60694 0.52344
vt 0.60694 0.77344
vt 0.60694 0.97656
vt 0.63667 0.72656
vt 0.63667 0.52344
vt 0.63667 0.77344
vt 0.63667 0.97656
vt 0.66639 0.72656
vt 0.66639 0.52344
vt 0.66639 0.77344
vt 0.66639 0.97656
vt 0.69612 0.72656
vt 0.69612 0.52344
vt 0.69612 0.77344
vt 0.69612 0.97656
vt 0.71476 0.72656
vt 0.71476 0.52344
vt 0.71476 0.77344
vt 0.71476 0.97656
vt 0.74533 0.72656
vt 0.74533 0.52344
vt 0.74533 0.77344
vt 0.74533 0.97656
vt 0.77598 0.72656
vt 0.77598 0.52344
vt 0.77598 0.77344
vt 0.77598 0.97656
vt 0.80669 0.72656
vt 0.80669 0.52344
vt 0.80669 0.77344
vt 0.80669 0.97656
vt 0.83748 0.72656
vt 0.83748 0.52344
vt 0.83748 0.77344
vt 0.83748 0.97656
vt 0.85772 0.72656
vt 0.85772 0.52344
vt 0.85772 0.77344
vt 0.85772 0.97656
vt 0.87951 0.72656
vt 0.87951 0.52344
vt 0.87951 0.77344
vt 0.87951 0.97656
vt 0.91079 0.72656
vt 0.91079 0.52344
vt 0.91079 0.77344
vt 0.91079 0.97656
vt 0.96997 0.72656
vt 0.96997 0.52344
vt 0.96997 0.77344
vt 0.96997 0.97656
vt 0.97656 0.72656
vt 0.97656 0.52344
vt 0.97656 0.77344
vt 0.97656 0.97656
vn 0.0000 -1.0000 0.0000
vn 0.8137 -0.5812 0.0000
vn 0.7518 -0.5812 0.3114
vn 0.5754 -0.5812 0.5754
vn 0.3114 -0.5812 0.7518
vn 0.0000 -0.5812 0.8137
vn -0.3114 -0.5812 0.7518
vn -0.5754 -0.5812 0.5754
vn -0.7518 -0.5812 0.3114
vn -0.8137 -0.5812 0.0000
vn -0.7518 -0.5812 -0.3114
vn -0.5754 -0.5812 -0.5754
vn -0.3114 -0.5812 -0.7518
vn -0.0000 -0.5812 -0.8137
vn 0.3114 -0.5812 -0.7518
vn 0.5754 -0.5812 -0.5754
vn 0.7518 -0.5812 -0.3114
vn 0.9971 -0.0767 0.0000
vn 0.9212 -0.0767 0.3816
vn 0.7050 -0.0767 0.7050
vn 0.3816 -0.0767 0.9212
vn 0.0000 -0.0767 0.9971
vn -0.3816 -0.0767 0.9212
vn -0.7050 -0.0767 0.7050
vn -0.9212 -0.0767 0.3816
vn -0.9971 -0.0767 0.0000
vn -0.9212 -0.0767 -0.3816
vn -0.7050 -0.0767 -0.7050
vn -0.3816 -0.0767 -0.9212
vn -0.0000 -0.0767 -0.9971
vn 0.3816 -0.0767 -0.9212
vn 0.7050 -0.0767 -0.7050
vn 0.9212 -0.0767 -0.3816
vn 0.8944 0.4472 0.0000
vn 0.8263 0.4472 0.3423
vn 0.6325 0.4472 0.6325
vn 0.3423 0.4472 0.8263
vn 0.0000 0.4472 0.8944
vn -0.3423 0.4472 0.8263
vn -0.6325 0.4472 0.6325
vn -0.8263 0.4472 0.3423
vn -0.8944 0.4472 0.0000
vn -0.8263 0.4472 -0.3423
vn -0.6325 0.4472 -0.6325
vn -0.3423 0.4472 -0.8263
vn -0.0000 0.4472 -0.8944
vn 0.3423 0.4472 -0.8263
vn 0.6325 0.4472 -0.6325
vn 0.8263 0.4472 -0.3423
vn 1.0000 0.0020 0.0000
vn 0.9239 0.0020 0.3827
vn 0.7071 0.0020 0.7071
vn 0.3827 0.0020 0.9239
vn 0.0000 0.0020 1.0000
vn -0.3827 0.0020 0.9239
vn -0.7071 0.0020 0.7071
vn -0.9239 0.0020 0.3827
vn -1.0000 0.0020 0.0000
vn -0.9239 0.0020 -0.3827
vn -0.7071 0.0020 -0.7071
vn -0.3827 0.0020 -0.9239
vn -0.0000 0.0020 -1.0000
vn 0.3827 0.0020 -0.9239
vn 0.7071 0.0020 -0.7071
vn 0.9239 0.0020 -0.3827
vn 0.7071 -0.7071 0.0000
vn 0.6533 -0.7071 0.2706
vn 0.5000 -0.7071 0.5000
vn 0.2706 -0.7071 0.6533
vn 0.0000 -0.7071 0.7071
vn -0.2706 -0.7071 0.6533
vn -0.5000 -0.7071 0.5000
vn -0.6533 -0.7071 0.2706
vn -0.7071 -0.7071 0.0000
vn -0.6533 -0.7071 -0.2706
vn -0.5000 -0.7071 -0.5000
vn -0.2706 -0.7071 -0.6533
vn -0.0000 -0.7071 -0.7071
vn 0.2706 -0.7071 -0.6533
vn 0.5000 -0.7071 -0.5000
vn 0.6533 -0.7071 -0.2706
vn 1.0000 -0.0000 0.0000
vn 0.9239 -0.0000 0.3827
vn 0.7071 -0.0000 0.7071
vn 0.3827 -0.0000 0.9239
vn 0.0000 -0.0000 1.0000
vn -0.3827 -0.0000 0.9239
vn -0.7071 -0.0000 0.7071
vn -0.9239 -0.0000 0.3827
vn -1.0000 -0.0000 0.0000
vn -0.9239 -0.0000 -0.3827
vn -0.7071 -0.0000 -0.7071
vn -0.3827 -0.0000 -0.9239
vn -0.0000 -0.0000 -1.0000
vn 0.3827 -0.0000 -0.9239
vn 0.7071 -0.0000 -0.7071
vn 0.9239 -0.0000 -0.3827
vn 0.8000 0.6000 0.0000
vn 0.7391 0.6000 0.3061
vn 0.5657 0.6000 0.5657
vn 0.3061 0.6000 0.7391
vn 0.0000 0.6000 0.8000
vn -0.3061 0.6000 0.7391
vn -0.5657 0.6000 0.5657
vn -0.7391 0.6000 0.3061
vn -0.8000 0.6000 0.0000
vn -0.7391 0.6000 -0.3061
vn -0.5657 0.6000 -0.5657
vn -0.3061 0.6000 -0.7391
vn -0.0000 0.6000 -0.8000
vn 0.3061 0.6000 -0.7391
vn 0.5657 0.6000 -0.5657
vn 0.7391 0.6000 -0.3061
vn 0.8944 -0.4472 0.0000
vn 0.8263 -0.4472 0.3423
vn 0.6325 -0.4472 0.6325
vn 0.3423 -0.4472 0.8263
vn 0.0000 -0.4472 0.8944
vn -0.3423 -0.4472 0.8263
vn -0.6325 -0.4472 0.6325
vn -0.8263 -0.4472 0.3423
vn -0.8944 -0.4472 0.0000
vn -0.8263 -0.4472 -0.3423
vn -0.6325 -0.4472 -0.6325
vn -0.3423 -0.4472 -0.8263
vn -0.0000 -0.4472 -0.8944
vn 0.3423 -0.4472 -0.8263
vn 0.6325 -0.4472 -0.6325
vn 0.8263 -0.4472 -0.3423
vn 0.0000 1.0000 0.0000
vn -0.8247 -0.5656 0.0000
vn -0.5832 -0.3999 -0.7071
vn -0.5832 -0.3999 0.7071
vn -0.8039 -0.5948 0.0000
vn -0.5684 -0.4206 -0.7071
vn -0.5684 -0.4206 0.7071
vn -0.7790 -0.6271 0.0000
vn -0.5508 -0.4434 -0.7071
vn -0.5508 -0.4434 0.7071
vn -0.7528 -0.6583 0.0000
vn -0.5323 -0.4655 -0.7071
vn -0.5323 -0.4655 0.7071
vn -0.7254 -0.6884 0.0000
vn -0.5129 -0.4867 -0.7071
vn -0.5129 -0.4867 0.7071
vn -0.6967 -0.7173 0.0000
vn -0.4927 -0.5072 -0.7071
vn -0.4927 -0.5072 0.7071
vn -0.7314 0.6820 0.0000
vn -0.5171 0.4822 -0.7071
vn -0.5171 0.4822 0.7071
vn 0.6544 0.7562 0.0000
vn 0.4627 0.5347 -0.7071
vn 0.4627 0.5347 0.7071
vn 0.6847 0.7288 0.0000
vn 0.4842 0.5153 -0.7071
vn 0.4842 0.5153 0.7071
vn 0.7139 0.7002 0.0000
vn 0.5048 0.4951 -0.7071
vn 0.5048 0.4951 0.7071
vn 0.7419 0.6705 0.0000
vn 0.5246 0.4741 -0.7071
vn 0.5246 0.4741 0.7071
vn 0.7687 0.6396 0.0000
vn 0.5436 0.4523 -0.7071
vn 0.5436 0.4523 0.7071
vn -0.7880 0.6157 0.0000
vn -0.5572 0.4353 -0.7071
vn -0.5572 0.4353 0.7071
vn 0.4695 0.8829 0.0000
vn 0.3320 0.6243 -0.7071
vn 0.3320 0.6243 0.7071
vn 0.7880 -0.6157 0.0000
vn 0.5572 -0.4353 -0.7071
vn 0.5572 -0.4353 0.7071
vn -0.0436 -0.9990 0.0000
vn -0.0308 -0.7064 -0.7071
vn -0.0308 -0.7064 0.7071
usemtl check_staff
s off
f 1/1/1 2/1/1 3/2/1
f 1/2/1 3/2/1 4/3/1
f 1/3/1 4/3/1 5/4/1
f 1/4/1 5/4/1 6/5/1
f 1/5/1 6/5/1 7/6/1
f 1/6/1 7/6/1 8/7/1
f 1/7/1 8/7/1 9/8/1
f 1/8/1 9/8/1 10/9/1
f 1/9/1 10/9/1 11/10/1
f 1/10/1 11/10/1 12/11/1
f 1/11/1 12/11/1 13/12/1
f 1/12/1 13/12/1 14/13/1
f 1/13/1 14/13/1 15/14/1
f 1/14/1 15/14/1 16/15/1
f 1/15/1 16/15/1 17/16/1
f 1/16/1 17/16/1 2/17/1
f 2/1/2 18/18/3 3/2/3
f 2/1/2 19/19/2 18/18/3
f 3/2/3 20/20/4 4/3/4
f 3/2/3 18/18/3 20/20/4
f 4/3/4 21/21/5 5/4/5
f 4/3/4 20/20/4 21/21/5
f 5/4/5 22/22/6 6/5/6
f 5/4/5 21/21/5 22/22/6
f 6/5/6 23/23/7 7/6/7
f 6/5/6 22/22/6 23/23/7
f 7/6/7 24/24/8 8/7/8
f 7/6/7 23/23/7 24/24/8
f 8/7/8 25/25/9 9/8/9
f 8/7/8 24/24/8 25/25/9
f 9/8/9 26/26/10 10/9/10
f 9/8/9 25/25/9 26/26/10
f 10/9/10 27/27/11 11/10/11
f 10/9/10 26/26/10 27/27/11
f 11/10/11 28/28/12 12/11/12
f 11/10/11 27/27/11 28/28/12
f 12/11/12 29/29/13 13/12/13
f 12/11/12 28/28/12 29/29/13
f 13/12/13 30/30/14 14/13/14
f 13/12/13 29/29/13 30/30/14
f 14/13/14 31/31/15 15/14/15
f 14/13/14 30/30/14 31/31/15
f 15/14/15 32/32/16 16/15/16
f 15/14/15 31/31/15 32/32/16
f 16/15/16 33/33/17 17/16/17
f 16/15/16 32/32/16 33/33/17
f 17/16/17 19/34/2 2/17/2
f 17/16/17 33/33/17 19/34/2
f 19/19/18 34/35/19 18/18/19
f 19/19/18 35/36/18 34/35/19
f 18/18/19 36/37/20 20/20/20
f 18/18/19 34/35/19 36/37/20
f 20/20/20 37/38/21 21/21/21
f 20/20/20 36/37/20 37/38/21
f 21/21/21 38/39/22 22/22/22
f 21/21/21 37/38/21 38/39/22
f 22/22/22 39/40/23 23/23/23
f 22/22/22 38/39/22 39/40/23
f 23/23/23 40/41/24 24/24/24
f 23/23/23 39/40/23 40/41/24
f 24/24/24 41/42/25 25/25/25
f 24/24/24 40/41/24 41/42/25
f 25/25/25 42/43/26 26/26/26
f 25/25/25 41/42/25 42/43/26
f 26/26/26 43/44/27 27/27/27
f 26/26/26 42/43/26 43/44/27
f 27/27/27 44/45/28 28/28/28
f 27/27/27 43/44/27 44/45/28
f 28/28/28 45/46/29 29/29/29
f 28/28/28 44/45/28 45/46/29
f 29/29/29 46/47/30 30/30/30
f 29/29/29 45/46/29 46/47/30
f 30/30/30 47/48/31 31/31/31
f 30/30/30 46/47/30 47/48/31
f 31/31/31 48/49/32 32/32/32
f 31/31/31 47/48/31 48/49/32
f 32/32/32 49/50/33 33/33/33
f 32/32/32 48/49/32 49/50/33
f 33/33/33 35/51/18 19/34/18
f 33/33/33 49/50/33 35/51/18
f 35/36/34 50/52/35 34/35/35
f 35/36/34 51/53/34 50/52/35
f 34/35/35 52/54/36 36/37/36
f 34/35/35 50/52/35 52/54/36
f 36/37/36 53/55/37 37/38/37
f 36/37/36 52/54/36 53/55/37
f 37/38/37 54/56/38 38/39/38
f 37/38/37 53/55/37 54/56/38
f 38/39/38 55/57/39 39/40/39
f 38/39/38 54/56/38 55/57/39
f 39/40/39 56/58/40 40/41/40
f 39/40/39 55/57/39 56/58/40
f 40/41/40 57/59/41 41/42/41
f 40/41/40 56/58/40 57/59/41
f 41/42/41 58/60/42 42/43/42
f 41/42/41 57/59/41 58/60/42
f 42/43/42 59/61/43 43/44/43
f 42/43/42 58/60/42 59/61/43
f 43/44/43 60/62/44 44/45/44
f 43/44/43 59/61/43 60/62/44
f 44/45/44 61/63/45 45/46/45
f 44/45/44 60/62/44 61/63/45
f 45/46/45 62/64/46 46/47/46
f 45/46/45 61/63/45 62/64/46
f 46/47/46 63/65/47 47/48/47
f 46/47/46 62/64/46 63/65/47
f 47/48/47 64/66/48 48/49/48
f 47/48/47 63/65/47 64/66/48
f 48/49/48 65/67/49 49/50/49
f 48/49/48 64/66/48 65/67/49
f 49/50/49 51/68/34 35/51/34
f 49/50/49 65/67/49 51/68/34
f 51/69/50 66/70/51 50/71/51
f 51/69/50 67/72/50 66/70/51
f 50/71/51 68/73/52 52/74/52
f 50/71/51 66/70/51 68/73/52
f 52/74/52 69/75/53 53/76/53
f 52/74/52 68/73/52 69/75/53
f 53/76/53 70/77/54 54/78/54
f 53/76/53 69/75/53 70/77/54
f 54/78/54 71/79/55 55/80/55
f 54/78/54 70/77/54 71/79/55
f 55/80/55 72/81/56 56/82/56
f 55/80/55 71/79/55 72/81/56
f 56/82/56 73/83/57 57/84/57
f 56/82/56 72/81/56 73/83/57
f 57/84/57 74/85/58 58/86/58
f 57/84/57 73/83/57 74/85/58
f 58/86/58 75/87/59 59/88/59
f 58/86/58 74/85/58 75/87/59
f 59/88/59 76/89/60 60/90/60
f 59/88/59 75/87/59 76/89/60
f 60/90/60 77/91/61 61/92/61
f 60/90/60 76/89/60 77/91/61
f 61/92/61 78/93/62 62/94/62
f 61/92/61 77/91/61 78/93/62
f 62/94/62 79/95/63 63/96/63
f 62/94/62 78/93/62 79/95/63
f 63/96/63 80/97/64 64/98/64
f 63/96/63 79/95/63 80/97/64
f 64/98/64 81/99/65 65/100/65
f 64/98/64 80/97/64 81/99/65
f 65/100/65 67/101/50 51/102/50
f 65/100/65 81/99/65 67/101/50
f 67/1/66 82/103/67 66/2/67
f 67/1/66 83/104/66 82/103/67
f 66/2/67 84/105/68 68/3/68
f 66/2/67 82/103/67 84/105/68
f 68/3/68 85/106/69 69/4/69
f 68/3/68 84/105/68 85/106/69
f 69/4/69 86/107/70 70/5/70
f 69/4/69 85/106/69 86/107/70
f 70/5/70 87/108/71 71/6/71
f 70/5/70 86/107/70 87/108/71
f 71/6/71 88/109/72 72/7/72
f 71/6/71 87/108/71 88/109/72
f 72/7/72 89/110/73 73/8/73
f 72/7/72 88/109/72 89/110/73
f 73/8/73 90/111/74 74/9/74
f 73/8/73 89/110/73 90/111/74
f 74/9/74 91/112/75 75/10/75
f 74/9/74 90/111/74 91/112/75
f 75/10/75 92/113/76 76/11/76
f 75/10/75 91/112/75 92/113/76
f 76/11/76 93/114/77 77/12/77
f 76/11/76 92/113/76 93/114/77
f 77/12/77 94/115/78 78/13/78
f 77/12/77 93/114/77 94/115/78
f 78/13/78 95/116/79 79/14/79
f 78/13/78 94/115/78 95/116/79
f 79/14/79 96/117/80 80/15/80
f 79/14/79 95/116/79 96/117/80
f 80/15/80 97/118/81 81/16/81
f 80/15/80 96/117/80 97/118/81
f 81/16/81 83/119/66 67/17/66
f 81/16/81 97/118/81 83/119/66
f 83/104/82 98/120/83 82/103/83
f 83/104/82 99/121/82 98/120/83
f 82/103/83 100/122/84 84/105/84
f 82/103/83 98/120/83 100/122/84
f 84/105/84 101/123/85 85/106/85
f 84/105/84 100/122/84 101/123/85
f 85/106/85 102/124/86 86/107/86
f 85/106/85 101/123/85 102/124/86
f 86/107/86 103/125/87 87/108/87
f 86/107/86 102/124/86 103/125/87
f 87/108/87 104/126/88 88/109/88
f 87/108/87 103/125/87 104/126/88
f 88/109/88 105/127/89 89/110/89
f 88/109/88 104/126/88 105/127/89
f 89/110/89 106/128/90 90/111/90
f 89/110/89 105/127/89 106/128/90
f 90/111/90 107/129/91 91/112/91
f 90/111/90 106/128/90 107/129/91
f 91/112/91 108/130/92 92/113/92
f 91/112/91 107/129/91 108/130/92
f 92/113/92 109/131/93 93/114/93
f 92/113/92 108/130/92 109/131/93
f 93/114/93 110/132/94 94/115/94
f 93/114/93 109/131/93 110/132/94
f 94/115/94 111/133/95 95/116/95
f 94/115/94 110/132/94 111/133/95
f 95/116/95 112/134/96 96/117/96
f 95/116/95 111/133/95 112/134/96
f 96/117/96 113/135/97 97/118/97
f 96/117/96 112/134/96 113/135/97
f 97/118/97 99/136/82 83/119/82
f 97/118/97 113/135/97 99/136/82
f 99/121/98 114/137/99 98/120/99
f 99/121/98 115/138/98 114/137/99
f 98/120/99 116/139/100 100/122/100
f 98/120/99 114/137/99 116/139/100
f 100/122/100 117/140/101 101/123/101
f 100/122/100 116/139/100 117/140/101
f 101/123/101 118/141/102 102/124/102
f 101/123/101 117/140/101 118/141/102
f 102/124/102 119/142/103 103/125/103
f 102/124/102 118/141/102 119/142/103
f 103/125/103 120/143/104 104/126/104
f 103/125/103 119/142/103 120/143/104
f 104/126/104 121/144/105 105/127/105
f 104/126/104 120/143/104 121/144/105
f 105/127/105 122/145/106 106/128/106
f 105/127/105 121/144/105 122/145/106
f 106/128/106 123/146/107 107/129/107
f 106/128/106 122/145/106 123/146/107
f 107/129/107 124/147/108 108/130/108
f 107/129/107 123/146/107 124/147/108
f 108/130/108 125/148/109 109/131/109
f 108/130/108 124/147/108 125/148/109
f 109/131/109 126/149/110 110/132/110
f 109/131/109 125/148/109 126/149/110
f 110/132/110 127/150/111 111/133/111
f 110/132/110 126/149/110 127/150/111
f 111/133/111 128/151/112 112/134/112
f 111/133/111 127/150/111 128/151/112
f 112/134/112 129/152/113 113/135/113
f 112/134/112 128/151/112 129/152/113
f 113/135/113 115/153/98 99/136/98
f 113/135/113 129/152/113 115/153/98
f 115/138/82 130/154/83 114/137/83
f 115/138/82 131/155/82 130/154/83
f 114/137/83 132/156/84 116/139/84
f 114/137/83 130/154/83 132/156/84
f 116/139/84 133/157/85 117/140/85
f 116/139/84 132/156/84 133/157/85
f 117/140/85 134/158/86 118/141/86
f 117/140/85 133/157/85 134/158/86
f 118/141/86 135/159/87 119/142/87
f 118/141/86 134/158/86 135/159/87
f 119/142/87 136/160/88 120/143/88
f 119/142/87 135/159/87 136/160/88
f 120/143/88 137/161/89 121/144/89
f 120/143/88 136/160/88 137/161/89
f 121/144/89 138/162/90 122/145/90
f 121/144/89 137/161/89 138/162/90
f 122/145/90 139/163/91 123/146/91
f 122/145/90 138/162/90 139/163/91
f 123/146/91 140/164/92 124/147/92
f 123/146/91 139/163/91 140/164/92
f 124/147/92 141/165/93 125/148/93
f 124/147/92 140/164/92 141/165/93
f 125/148/93 142/166/94 126/149/94
f 125/148/93 141/165/93 142/166/94
f 126/149/94 143/167/95 127/150/95
f 126/149/94 142/166/94 143/167/95
f 127/150/95 144/168/96 128/151/96
f 127/150/95 143/167/95 144/168/96
f 128/151/96 145/169/97 129/152/97
f 128/151/96 144/168/96 145/169/97
f 129/152/97 131/170/82 115/153/82
f 129/152/97 145/169/97 131/170/82
f 131/155/114 146/171/115 130/154/115
f 131/155/114 147/172/114 146/171/115
f 130/154/115 148/173/116 132/156/116
f 130/154/115 146/171/115 148/173/116
f 132/156/116 149/174/117 133/157/117
f 132/156/116 148/173/116 149/174/117
f 133/157/117 150/175/118 134/158/118
f 133/157/117 149/174/117 150/175/118
f 134/158/118 151/176/119 135/159/119
f 134/158/118 150/175/118 151/176/119
f 135/159/119 152/177/120 136/160/120
f 135/159/119 151/176/119 152/177/120
f 136/160/120 153/178/121 137/161/121
f 136/160/120 152/177/120 153/178/121
f 137/161/121 154/179/122 138/162/122
f 137/161/121 153/178/121 154/179/122
f 138/162/122 155/180/123 139/163/123
f 138/162/122 154/179/122 155/180/123
f 139/163/123 156/181/124 140/164/124
f 139/163/123 155/180/123 156/181/124
f 140/164/124 157/182/125 141/165/125
f 140/164/124 156/181/124 157/182/125
f 141/165/125 158/183/126 142/166/126
f 141/165/125 157/182/125 158/183/126
f 142/166/126 159/184/127 143/167/127
f 142/166/126 158/183/126 159/184/127
f 143/167/127 160/185/128 144/168/128
f 143/167/127 159/184/127 160/185/128
f 144/168/128 161/186/129 145/169/129
f 144/168/128 160/185/128 161/186/129
f 145/169/129 147/187/114 131/170/114
f 145/169/129 161/186/129 147/187/114
f 147/172/82 162/52/83 146/171/83
f 147/172/82 163/53/82 162/52/83
f 146/171/83 164/54/84 148/173/84
f 146/171/83 162/52/83 164/54/84
f 148/173/84 165/55/85 149/174/85
f 148/173/84 164/54/84 165/55/85
f 149/174/85 166/56/86 150/175/86
f 149/174/85 165/55/85 166/56/86
f 150/175/86 167/57/87 151/176/87
f 150/175/86 166/56/86 167/57/87
f 151/176/87 168/58/88 152/177/88
f 151/176/87 167/57/87 168/58/88
f 152/177/88 169/59/89 153/178/89
f 152/177/88 168/58/88 169/59/89
f 153/178/89 170/60/90 154/179/90
f 153/178/89 169/59/89 170/60/90
f 154/179/90 171/61/91 155/180/91
f 154/179/90 170/60/90 171/61/91
f 155/180/91 172/62/92 156/181/92
f 155/180/91 171/61/91 172/62/92
f 156/181/92 173/63/93 157/182/93
f 156/181/92 172/62/92 173/63/93
f 157/182/93 174/64/94 158/183/94
f 157/182/93 173/63/93 174/64/94
f 158/183/94 175/65/95 159/184/95
f 158/183/94 174/64/94 175/65/95
f 159/184/95 176/66/96 160/185/96
f 159/184/95 175/65/95 176/66/96
f 160/185/96 177/67/97 161/186/97
f 160/185/96 176/66/96 177/67/97
f 161/186/97 163/68/82 147/187/82
f 161/186/97 177/67/97 163/68/82
f 163/53/130 178/52/130 162/52/130
f 162/52/130 178/54/130 164/54/130
f 164/54/130 178/55/130 165/55/130
f 165/55/130 178/56/130 166/56/130
f 166/56/130 178/57/130 167/57/130
f 167/57/130 178/58/130 168/58/130
f 168/58/130 178/59/130 169/59/130
f 169/59/130 178/60/130 170/60/130
f 170/60/130 178/61/130 171/61/130
f 171/61/130 178/62/130 172/62/130
f 172/62/130 178/63/130 173/63/130
f 173/63/130 178/64/130 174/64/130
f 174/64/130 178/65/130 175/65/130
f 175/65/130 178/66/130 176/66/130
f 176/66/130 178/67/130 177/67/130
f 177/67/130 178/68/130 163/68/130
f 179/188/94 180/189/94 181/190/94
f 179/188/94 181/190/94 182/191/94
f 179/188/94 183/192/94 182/191/94
f 184/193/94 185/194/94 186/195/94
f 187/196/94 184/193/94 186/195/94
f 183/192/94 187/196/94 186/195/94
f 179/188/94 183/192/94 186/195/94
f 179/188/94 186/195/94 188/197/94
f 179/188/94 188/197/94 189/198/94
f 179/188/94 189/198/94 190/199/94
f 179/188/94 190/199/94 191/200/94
f 179/188/94 191/200/94 192/201/94
f 179/188/94 192/201/94 193/202/94
f 193/202/94 194/203/94 179/188/94
f 195/188/86 196/190/86 197/189/86
f 195/188/86 198/191/86 196/190/86
f 195/188/86 198/191/86 199/192/86
f 200/193/86 201/195/86 202/194/86
f 203/196/86 201/195/86 200/193/86
f 199/192/86 201/195/86 203/196/86
f 195/188/86 201/195/86 199/192/86
f 195/188/86 204/197/86 201/195/86
f 195/188/86 205/198/86 204/197/86
f 195/188/86 206/199/86 205/198/86
f 195/188/86 207/200/86 206/199/86
f 195/188/86 208/201/86 207/200/86
f 195/188/86 209/202/86 208/201/86
f 209/202/86 195/188/86 210/203/86
f 211/204/131 212/205/131 213/206/131
f 211/204/131 214/207/131 212/205/131
f 211/208/132 213/209/132 181/210/132
f 211/208/132 181/210/132 180/211/132
f 214/208/133 196/210/133 212/209/133
f 214/208/133 197/211/133 196/210/133
f 213/206/134 215/212/134 216/213/134
f 213/206/134 212/205/134 215/212/134
f 213/209/135 216/214/135 182/215/135
f 213/209/135 182/215/135 181/210/135
f 212/209/136 198/215/136 215/214/136
f 212/209/136 196/210/136 198/215/136
f 216/213/137 217/216/137 218/217/137
f 216/213/137 215/212/137 217/216/137
f 216/214/138 218/218/138 183/219/138
f 216/214/138 183/219/138 182/215/138
f 215/214/139 199/219/139 217/218/139
f 215/214/139 198/215/139 199/219/139
f 218/217/140 219/220/140 220/221/140
f 218/217/140 217/216/140 219/220/140
f 218/218/141 220/222/141 187/223/141
f 218/218/141 187/223/141 183/219/141
f 217/218/142 203/223/142 219/222/142
f 217/218/142 199/219/142 203/223/142
f 220/221/143 221/224/143 222/225/143
f 220/221/143 219/220/143 221/224/143
f 220/222/144 222/226/144 184/227/144
f 220/222/144 184/227/144 187/223/144
f 219/222/145 200/227/145 221/226/145
f 219/222/145 203/223/145 200/227/145
f 222/225/146 223/228/146 224/229/146
f 222/225/146 221/224/146 223/228/146
f 222/226/147 224/230/147 185/231/147
f 222/226/147 185/231/147 184/227/147
f 221/226/148 202/231/148 223/230/148
f 221/226/148 200/227/148 202/231/148
f 224/229/149 225/232/149 226/233/149
f 224/229/149 223/228/149 225/232/149
f 224/230/150 226/234/150 186/235/150
f 224/230/150 186/235/150 185/231/150
f 223/230/151 201/235/151 225/234/151
f 223/230/151 202/231/151 201/235/151
f 226/233/152 227/236/152 228/237/152
f 226/233/152 225/232/152 227/236/152
f 226/234/153 228/238/153 188/239/153
f 226/234/153 188/239/153 186/235/153
f 225/234/154 204/239/154 227/238/154
f 225/234/154 201/235/154 204/239/154
f 228/237/155 229/240/155 230/241/155
f 228/237/155 227/236/155 229/240/155
f 228/238/156 230/242/156 189/243/156
f 228/238/156 189/243/156 188/239/156
f 227/238/157 205/243/157 229/242/157
f 227/238/157 204/239/157 205/243/157
f 230/241/158 231/244/158 232/245/158
f 230/241/158 229/240/158 231/244/158
f 230/242/159 232/246/159 190/247/159
f 230/242/159 190/247/159 189/243/159
f 229/242/160 206/247/160 231/246/160
f 229/242/160 205/243/160 206/247/160
f 232/245/161 233/248/161 234/249/161
f 232/245/161 231/244/161 233/248/161
f 232/246/162 234/250/162 191/251/162
f 232/246/162 191/251/162 190/247/162
f 231/246/163 207/251/163 233/250/163
f 231/246/163 206/247/163 207/251/163
f 234/249/164 235/252/164 236/253/164
f 234/249/164 233/248/164 235/252/164
f 234/250/165 236/254/165 192/255/165
f 234/250/165 192/255/165 191/251/165
f 233/250/166 208/255/166 235/254/166
f 233/250/166 207/251/166 208/255/166
f 236/253/167 237/256/167 238/257/167
f 236/253/167 235/252/167 237/256/167
f 236/254/168 238/258/168 193/259/168
f 236/254/168 193/259/168 192/255/168
f 235/254/169 209/259/169 237/258/169
f 235/254/169 208/255/169 209/259/169
f 238/257/170 239/260/170 240/261/170
f 238/257/170 237/256/170 239/260/170
f 238/258/171 240/262/171 194/263/171
f 238/258/171 194/263/171 193/259/171
f 237/258/172 210/263/172 239/262/172
f 237/258/172 209/259/172 210/263/172
f 240/261/173 241/264/173 242/265/173
f 240/261/173 239/260/173 241/264/173
f 240/262/174 242/266/174 179/267/174
f 240/262/174 179/267/174 194/263/174
f 239/262/175 195/267/175 241/266/175
f 239/262/175 210/263/175 195/267/175
f 242/265/176 214/268/176 211/269/176
f 242/265/176 241/264/176 214/268/176
f 242/266/177 211/270/177 180/271/177
f 242/266/177 180/271/177 179/267/177
f 241/266/178 197/271/178 214/270/178
f 241/266/178 195/267/178 197/271/178
